<mxfile host="app.diagrams.net" modified="2023-06-08T09:53:44.589Z" agent="Mozilla/5.0 (Windows NT 10.0; Win64; x64) AppleWebKit/537.36 (KHTML, like Gecko) Chrome/112.0.0.0 Safari/537.36" version="21.3.6" etag="vy63w5vbG6_5oB7KU136" type="github">
  <diagram name="Page-1" id="N89y5Ov9PGJAtC9dOLJC">
    <mxGraphModel>
      <root>
        <mxCell id="0" />
        <mxCell id="1" parent="0" />
      </root>
    </mxGraphModel>
  </diagram>
</mxfile>
